<svg xmlns="http://www.w3.org/2000/svg" viewBox="0 0 544 544" width="60.87" height="60.61">
  <path d="M300.182 171.072c-19.14 42.924-38.14 85.497-57.101 128.088-2.637 5.924-1.588 7.847 4.88 7.385 12.979-.926 25.92-.006 38.876 0 3.633.001 5.787 1.572 7.326 4.827 5.052 10.684 10.447 21.208 15.438 31.92 4.906 10.529.722 17.018-10.783 17.04-24.996.046-49.993.19-74.985-.076-5.973-.063-8.922 2.223-11.233 7.57-7.86 18.18-16.203 36.153-24.36 54.205-2.21 4.892-5.844 7.39-11.363 7.355-15.163-.096-30.328.04-45.49-.056-8.776-.055-13.948-7.508-10.788-15.887 2.345-6.217 5.368-12.183 8.16-18.227 26.61-57.598 53.225-115.194 79.86-172.781a142864 142864 0 0 1 68.847-148.697c3.562-7.678 8.285-10.068 14.896-8.032 3.25 1 5.423 3.168 6.83 6.163 6.655 14.165 13.26 28.355 19.946 42.505 2.38 5.038 2.028 9.796-.285 14.836-6.32 13.771-12.365 27.67-18.671 41.862" fill="#000"/>
  <path d="M409.826 434.76c-21.068 29.957-49.08 47.124-85.675 49.742-8.168.584-16.267.769-24.421.346-7.305-.378-11.648-4.049-11.832-11.467a832 832 0 0 1-.038-40.489c.2-8.399 4.617-11.978 13.205-12.23 7.475-.217 14.954.546 22.432-.734 31.6-5.408 49.152-37.608 35.876-66.705-13.826-30.3-28.063-60.411-42.21-90.563-9.123-19.444-8.04-15.17-.48-32.991 5.072-11.956 10.548-23.74 15.796-35.62 2.018-4.569 4.366-8.69 9.998-9.384 7.082-.872 9.793.838 13.577 8.912a24836 24836 0 0 1 29.807 63.818c10.673 22.942 21.574 45.784 31.868 68.896 16.623 37.32 13.684 73.45-7.903 108.47" fill="#000"/>
</svg>
